<svg version="1.1" id="Layer_1" xmlns="http://www.w3.org/2000/svg" xmlns:xlink="http://www.w3.org/1999/xlink" x="0px" y="0px"
     width="100%" viewBox="0 0 1039 1039" enable-background="new 0 0 1039 1039" xml:space="preserve">
<path fill="#09153E" opacity="1.000000" stroke="none"
      d="
M1040.000000,883.000000
	C1040.000000,884.066650 1040.000000,885.133301 1039.668457,886.594849
	C1038.871582,887.137268 1038.072266,887.181091 1037.989502,887.447510
	C1035.491089,895.488892 1032.896973,903.506348 1030.659546,911.621765
	C1026.197876,927.804077 1017.862244,942.161926 1008.884888,956.006042
	C997.336609,973.814697 982.560669,989.032837 966.070129,1002.311157
	C947.328491,1017.402283 926.506958,1028.938721 903.238953,1035.766602
	C900.636047,1036.530396 898.403992,1038.558350 896.000000,1040.000000
	C647.643311,1040.000000 399.286682,1040.000000 150.462524,1039.725830
	C149.203293,1039.027222 148.451340,1038.489136 147.613693,1038.196045
	C138.384811,1034.965942 128.877731,1032.366821 119.983635,1028.393433
	C112.176460,1024.905640 105.151855,1019.706787 97.608047,1015.580994
	C73.871681,1002.599182 55.086880,984.007019 39.308399,962.523071
	C19.603407,935.692627 7.501953,905.479248 2.885452,872.382751
	C2.764793,871.517639 1.650760,870.791138 0.999993,870.000000
	C1.000000,866.638306 1.000000,863.276672 1.298017,859.376465
	C1.819756,858.498474 2.043478,858.159119 2.490003,857.581665
	C2.804802,856.231445 2.896796,855.119324 3.274643,853.702148
	C3.707118,851.921570 3.982067,850.446106 3.982196,848.970581
	C4.001245,632.045532 4.002757,415.120483 3.958236,198.195435
	C3.957881,196.464203 3.320677,194.733124 2.772691,193.005676
	C2.564558,193.009369 2.149592,193.043091 2.112926,192.640884
	C1.717506,190.825790 1.358752,189.412888 0.999999,188.000000
	C1.000000,185.299927 1.000000,182.599854 1.388568,179.367920
	C2.174334,178.170563 2.863213,177.531570 2.926395,176.835754
	C4.889025,155.221802 11.434484,134.868637 20.813025,115.504395
	C33.348629,89.621628 50.792324,67.514626 72.628746,48.571381
	C88.205788,35.058193 105.327545,24.370674 124.004745,16.147009
	C138.719162,9.668179 154.022110,4.705531 170.151627,2.839608
	C170.829605,2.761175 171.386627,1.637002 172.000000,1.000002
	C179.023331,1.000000 186.046661,1.000000 193.838913,1.284709
	C196.252274,1.707475 197.896683,1.966326 199.541138,1.966472
	C415.958069,1.985707 632.375000,1.988300 848.791931,1.946372
	C850.528015,1.946036 852.263977,1.329057 854.000000,0.999996
	C860.023376,1.000000 866.046814,1.000000 872.610962,1.380174
	C875.919800,2.509095 878.655640,3.418459 881.461060,3.980968
	C902.249268,8.149193 921.910400,15.562193 940.164978,26.140278
	C962.459290,39.059261 981.979248,55.416958 998.292358,75.614212
	C1015.882568,97.392616 1028.608887,121.518990 1036.095459,148.474487
	C1037.007324,151.757889 1038.679932,154.829971 1040.000000,158.000000
	C1040.000000,399.023315 1040.000000,640.046631 1039.744629,881.530396
	C1039.277100,882.232849 1039.064941,882.474792 1038.852661,882.716675
	C1039.235107,882.811096 1039.617554,882.905518 1040.000000,883.000000
M774.140015,735.112854
	C774.140015,735.112854 774.138184,735.240601 774.697144,735.063721
	C774.910217,734.742065 775.123352,734.420410 775.865540,733.794556
	C776.962158,732.360535 778.058777,730.926453 779.730286,729.154541
	C780.485962,728.103455 781.241638,727.052368 782.000000,726.000000
	C782.000000,726.000000 782.000427,725.996887 782.531982,725.678955
	C782.856628,725.151184 783.181335,724.623352 784.020691,723.723938
	C799.645447,704.018372 811.989929,682.393555 821.681824,659.227417
	C838.933655,617.990662 846.907471,574.859985 848.866211,530.161072
	C854.196838,530.148071 859.538269,530.338013 864.854309,530.053223
	C868.595642,529.852722 870.599365,530.855652 872.389648,534.565918
	C879.785889,549.894714 898.332153,558.353394 914.819397,554.479980
	C932.747925,550.267944 945.073547,535.028748 945.045898,517.108337
	C945.018555,499.371002 932.763489,484.103210 915.218140,479.947784
	C897.946411,475.857178 880.042725,484.389038 872.050964,500.299988
	C871.270325,501.854034 869.300354,503.757965 867.794922,503.837250
	C861.155457,504.186829 854.483948,503.927307 847.710815,503.067200
	C845.785889,485.934235 844.622559,468.672760 841.757812,451.698395
	C837.435120,426.084686 829.634521,401.395691 818.411011,377.065460
	C811.635437,364.301575 804.859863,351.537659 798.069824,338.403320
	C797.995300,338.144897 797.831604,337.969940 797.361023,337.223572
	C796.584656,336.132080 795.808289,335.040619 794.997192,333.994507
	C794.997192,333.994507 795.050232,333.973480 794.943665,333.345581
	C794.319519,332.500641 793.695374,331.655701 792.926392,330.146942
	C786.981384,322.038361 781.036377,313.929779 774.872131,305.191101
	C762.240662,292.155945 749.609253,279.120758 736.636963,265.507446
	C723.845032,256.290588 711.053162,247.073715 697.820557,237.327164
	C681.105713,229.022476 664.416199,220.665909 647.642273,212.482330
	C645.664307,211.517349 643.223145,211.501877 640.383850,210.616745
	C638.714294,210.006332 637.014648,209.466965 635.379822,208.774551
	C618.961975,201.821121 602.013733,196.960266 583.614868,195.075912
	C578.173828,194.069641 572.759766,192.395706 567.286926,192.174133
	C545.064941,191.274445 522.827454,190.657349 500.589783,190.317062
	C495.023285,190.231873 489.435028,191.565842 483.157562,192.103119
	C477.304077,192.841537 471.373596,193.206665 465.612732,194.394348
	C452.738617,197.048477 439.802307,199.588074 427.157593,203.125946
	C405.145752,209.284622 383.822968,217.358475 363.247375,228.898834
	C361.402222,230.017487 359.557037,231.136124 357.004059,232.439606
	C354.562347,233.921326 352.120667,235.403030 349.031616,237.063187
	C346.653931,238.605240 344.276245,240.147293 341.340454,241.868149
	C341.124420,242.174667 340.908386,242.481186 340.857971,242.772598
	C340.857971,242.772598 340.789673,242.620972 340.159271,242.722687
	C339.668915,243.110260 339.178558,243.497833 338.044983,244.061981
	C333.813019,247.020187 329.441223,249.798538 325.369659,252.963120
	C243.531250,316.571320 202.324295,400.981079 196.144547,503.951599
	C190.319122,503.974915 184.478790,503.754822 178.673691,504.110138
	C175.022461,504.333618 173.243500,503.152985 171.526947,499.828705
	C161.432602,480.279846 137.898010,473.340607 118.467896,483.891785
	C100.205322,493.808929 93.442116,517.326294 103.858238,535.701294
	C111.315674,548.856873 123.098404,555.406067 138.037491,555.222900
	C153.281387,555.035950 164.690567,547.636902 171.728500,534.097656
	C173.259415,531.152527 174.688232,529.902039 178.048706,530.071838
	C184.356094,530.390381 190.688202,530.219727 197.095184,531.143921
	C197.446960,538.441895 197.591080,545.757019 198.190659,553.034607
	C199.784317,572.377991 202.391220,591.561035 208.267899,611.009033
	C214.230026,632.740051 221.181610,654.097900 232.100784,674.704407
	C241.050354,689.477661 249.999924,704.250916 259.289795,719.606018
	C260.266937,720.943726 261.137695,722.376770 262.237671,723.604309
	C272.820587,735.414490 283.442078,747.190063 294.332275,759.577637
	C307.083099,769.803955 319.833954,780.030334 332.669006,790.233887
	C332.669006,790.233887 332.728546,790.170105 332.882690,790.758484
	C333.222046,790.971558 333.561401,791.184692 334.375427,791.874573
	C347.219391,799.320007 360.063324,806.765442 373.160950,814.581970
	C373.405396,814.791138 373.686371,814.870056 374.347839,815.080505
	C374.347839,815.080505 374.778076,815.121521 375.268890,815.624878
	C394.136688,824.677856 413.526184,832.314026 434.507294,837.637817
	C441.129456,839.218750 447.715454,840.974915 454.380066,842.350281
	C483.302246,848.319092 512.470398,851.135010 542.898071,848.912598
	C570.985962,847.600891 598.330688,842.237549 625.081665,833.722656
	C647.336792,826.638855 668.830322,817.779236 689.687195,806.022339
	C690.315552,806.328491 690.943970,806.634644 691.839355,807.472473
	C693.440979,808.904846 695.042664,810.337219 696.901855,812.340149
	C722.163696,839.848938 752.391846,858.181702 790.130554,862.331848
	C803.839294,863.839355 817.465393,863.165100 830.315247,857.484802
	C839.689087,853.341064 840.625916,844.511658 832.172119,839.000610
	C814.185425,827.275269 798.690491,812.726135 783.740417,797.488037
	C778.978699,792.634583 773.883606,788.110046 769.020935,783.353394
	C761.932312,776.419373 754.916016,769.411499 748.178345,762.741455
	C749.797424,760.818970 750.926392,759.478394 752.715881,757.959900
	C754.922791,755.757324 757.129700,753.554688 759.290710,751.257080
	C759.290710,751.257080 759.231140,751.344299 759.779785,751.216919
	C760.134583,750.796326 760.489441,750.375732 761.428833,749.665405
	C763.003967,747.934021 764.579102,746.202698 766.749390,744.130371
	C768.201294,742.433350 769.653198,740.736389 771.550354,738.836609
	C771.817932,738.617249 771.967651,738.335327 772.519409,737.711548
	C772.789978,737.205017 773.060608,736.698425 773.197632,736.153442
	C773.197632,736.153442 773.215698,736.291199 773.752747,736.124329
	C773.922119,735.800903 774.091492,735.477478 774.140015,735.112854
z"/>
  <path fill="#494B69" opacity="1.000000" stroke="none"
        d="
M0.999999,188.461243
	C1.358752,189.412888 1.717506,190.825790 2.058912,193.101501
	C2.026341,195.297195 1.997796,196.630066 1.997782,197.962952
	C1.995740,389.090698 1.984450,580.218445 2.007796,771.346191
	C2.011317,800.170715 2.176701,828.995178 2.267206,857.819702
	C2.043478,858.159119 1.819756,858.498474 1.298017,858.918945
	C1.000000,635.640808 1.000000,412.281677 0.999999,188.461243
z"/>
  <path fill="#000029" opacity="1.000000" stroke="none"
        d="
M853.531372,0.999996
	C852.263977,1.329057 850.528015,1.946036 848.791931,1.946372
	C632.375000,1.988300 415.958069,1.985707 199.541138,1.966472
	C197.896683,1.966326 196.252274,1.707475 194.303925,1.284709
	C413.687561,1.000000 633.375122,1.000000 853.531372,0.999996
z"/>
  <path fill="#000000" opacity="1.000000" stroke="none"
        d="
M1040.000000,882.750000
	C1039.617554,882.905518 1039.235107,882.811096 1038.852661,882.716675
	C1039.064941,882.474792 1039.277100,882.232849 1039.744629,881.995483
	C1040.000000,882.000000 1040.000000,882.500000 1040.000000,882.750000
z"/>
  <path fill="#4174FB" opacity="1.000000" stroke="none"
        d="
M691.572327,806.940796
	C690.943970,806.634644 690.315552,806.328491 689.341309,805.575562
	C689.057495,802.825500 688.368469,801.456543 685.762024,802.608643
	C683.952148,803.408752 682.176636,804.286316 680.369446,805.092957
	C676.143311,806.979370 671.907288,808.843872 667.697266,810.707520
	C665.918274,806.615234 668.746460,805.074158 670.311096,802.471191
	C673.504761,797.158325 676.907104,796.115112 682.228638,798.474243
	C683.140564,798.878540 684.598633,798.050903 686.264709,797.693665
	C678.901123,789.534302 678.901123,789.534302 679.982849,787.741821
	C682.458435,789.672852 685.236694,791.839966 688.826111,794.639832
	C689.996643,792.154297 692.032349,789.526611 691.472351,788.734863
	C688.656067,784.753052 692.629089,781.346436 691.926270,777.582825
	C691.716248,776.458557 693.688416,774.340515 695.134033,773.592896
	C701.961487,770.062622 702.015869,770.179199 697.169189,764.268250
	C696.645081,763.629089 696.140808,762.957947 695.735596,762.240417
	C694.892029,760.746826 694.121033,759.212219 693.320251,757.694458
	C694.928833,757.127502 696.499451,756.280151 698.154419,756.056335
	C700.949707,755.678345 702.787476,755.086731 701.160217,751.698486
	C700.462280,750.245239 700.179504,748.592590 699.708191,747.030518
	C701.318115,747.030518 702.928040,747.030518 705.543762,747.030518
	C703.905518,742.572327 702.295715,738.242981 700.730957,733.897461
	C700.335449,732.799194 699.945984,731.667175 699.796082,730.519043
	C699.536072,728.527832 699.754395,726.434570 699.244629,724.525024
	C698.543823,721.899658 697.351746,719.405518 696.683167,716.942078
	C698.570740,717.917542 700.145325,718.806030 701.905701,719.799316
	C703.078491,718.788330 704.237732,717.868225 705.308472,716.854614
	C733.600769,690.071777 754.526855,658.484497 767.535889,621.691101
	C777.996033,592.106812 783.579224,561.672485 784.349060,530.213135
	C805.852417,530.200806 826.884338,530.257812 847.916260,530.314758
	C846.907471,574.859985 838.933655,617.990662 821.681824,659.227417
	C811.989929,682.393555 799.645447,704.018372 783.441772,724.008911
	C782.575378,724.861572 782.287842,725.429199 782.000366,725.996826
	C782.000427,725.996887 782.000000,726.000000 781.635620,726.049805
	C780.565918,727.230591 779.860657,728.361511 779.155396,729.492432
	C778.058777,730.926453 776.962158,732.360535 775.319153,734.037292
	C774.561218,734.600220 774.349670,734.920410 774.138184,735.240601
	C774.138184,735.240601 774.140015,735.112854 773.926697,735.215088
	C773.547485,735.641968 773.381592,735.966553 773.215698,736.291199
	C773.215698,736.291199 773.197632,736.153442 772.961304,736.255249
	C772.483154,736.901672 772.241394,737.446228 771.999634,737.990723
	C771.967651,738.335327 771.817932,738.617249 770.939209,738.971069
	C767.362122,739.669250 765.235535,740.885864 766.154236,744.471375
	C764.579102,746.202698 763.003967,747.934021 760.844971,749.865356
	C759.917725,750.491638 759.574402,750.917969 759.231079,751.344238
	C759.231140,751.344299 759.290710,751.257080 758.882202,751.195923
	C752.659241,751.162415 752.066956,751.808655 752.055420,758.137817
	C750.926392,759.478394 749.797424,760.818970 748.178345,762.741455
	C754.916016,769.411499 761.932312,776.419373 769.020935,783.353394
	C773.883606,788.110046 778.978699,792.634583 783.740417,797.488037
	C798.690491,812.726135 814.185425,827.275269 832.172119,839.000610
	C840.625916,844.511658 839.689087,853.341064 830.315247,857.484802
	C817.465393,863.165100 803.839294,863.839355 790.130554,862.331848
	C752.391846,858.181702 722.163696,839.848938 696.874084,811.597534
	C696.097961,808.739685 695.349670,806.624512 694.601318,804.509277
	C693.591614,805.319763 692.581970,806.130249 691.572327,806.940796
z"/>
  <path fill="#8857FA" opacity="1.000000" stroke="none"
        d="
M197.093292,503.779907
	C202.324295,400.981079 243.531250,316.571320 325.369659,252.963120
	C329.441223,249.798538 333.813019,247.020187 338.713867,243.975647
	C339.851715,243.466537 340.320709,243.043762 340.789673,242.620972
	C340.789673,242.620972 340.857971,242.772598 341.064362,242.710449
	C341.480011,242.328659 341.689301,242.009003 341.898590,241.689346
	C344.276245,240.147293 346.653931,238.605240 349.772156,237.006104
	C357.951385,237.844284 357.960083,237.838638 357.711884,232.254761
	C359.557037,231.136124 361.402222,230.017487 363.794556,229.072937
	C365.926270,229.513168 367.538055,229.671814 369.090363,230.065231
	C374.079956,231.329880 378.721710,232.282806 383.750916,229.109940
	C386.931091,227.103622 391.254242,226.710175 395.143738,226.084305
	C398.845245,225.488663 400.254242,227.589462 399.827545,230.304413
	C395.275604,232.787888 391.313629,234.965729 387.335724,237.114120
	C384.665741,238.556122 384.063202,239.932480 386.779938,242.198441
	C389.917328,244.815231 389.809082,247.841263 386.533661,249.881882
	C382.867157,252.166153 383.486176,253.447357 386.878204,255.298294
	C387.825714,255.815277 388.656433,258.747742 388.105042,259.458832
	C384.021332,264.725128 383.907349,264.636749 388.781342,268.358521
	C386.384399,270.334656 383.841980,271.994171 386.507050,275.892212
	C388.387695,278.642914 388.878204,282.344055 389.735229,285.837952
	C388.111816,286.745209 386.742554,287.435455 384.963440,288.086792
	C382.624237,287.737396 380.694885,287.426910 378.107513,287.010529
	C379.132294,289.037415 379.702393,290.165009 380.223022,291.264221
	C380.173584,291.235809 380.256714,291.157745 379.986694,291.226318
	C379.492645,291.579193 379.268616,291.863495 378.850952,292.419342
	C332.376099,322.961609 298.648773,363.487946 278.941406,415.319366
	C268.100922,443.830444 261.676117,473.307007 260.467529,503.974792
	C239.036606,503.957245 218.064957,503.868561 197.093292,503.779907
z"/>
  <path fill="#4371FA" opacity="1.000000" stroke="none"
        d="
M696.370178,716.855103
	C697.351746,719.405518 698.543823,721.899658 699.244629,724.525024
	C699.754395,726.434570 699.536072,728.527832 699.796082,730.519043
	C699.945984,731.667175 700.335449,732.799194 700.730957,733.897461
	C702.295715,738.242981 703.905518,742.572327 705.543762,747.030518
	C702.928040,747.030518 701.318115,747.030518 699.708191,747.030518
	C700.179504,748.592590 700.462280,750.245239 701.160217,751.698486
	C702.787476,755.086731 700.949707,755.678345 698.154419,756.056335
	C696.499451,756.280151 694.928833,757.127502 693.320251,757.694458
	C694.121033,759.212219 694.892029,760.746826 695.735596,762.240417
	C696.140808,762.957947 696.645081,763.629089 697.169189,764.268250
	C702.015869,770.179199 701.961487,770.062622 695.134033,773.592896
	C693.688416,774.340515 691.716248,776.458557 691.926270,777.582825
	C692.629089,781.346436 688.656067,784.753052 691.472351,788.734863
	C692.032349,789.526611 689.996643,792.154297 688.826111,794.639832
	C685.236694,791.839966 682.458435,789.672852 679.982849,787.741821
	C678.901123,789.534302 678.901123,789.534302 686.264709,797.693665
	C684.598633,798.050903 683.140564,798.878540 682.228638,798.474243
	C676.907104,796.115112 673.504761,797.158325 670.311096,802.471191
	C668.746460,805.074158 665.918274,806.615234 667.697266,810.707520
	C671.907288,808.843872 676.143311,806.979370 680.369446,805.092957
	C682.176636,804.286316 683.952148,803.408752 685.762024,802.608643
	C688.368469,801.456543 689.057495,802.825500 688.996582,805.508545
	C668.830322,817.779236 647.336792,826.638855 625.081665,833.722656
	C598.330688,842.237549 570.985962,847.600891 542.545227,848.523682
	C543.614014,847.503174 545.035645,846.871460 545.682617,846.583984
	C546.001526,844.013367 545.864197,841.778931 546.587585,839.870728
	C549.614502,831.885986 543.516418,823.539673 547.676697,815.647766
	C547.760620,815.488464 547.274231,815.098633 547.238159,814.794556
	C546.997192,812.764709 546.744568,810.732849 546.611389,808.694153
	C546.281616,803.645447 546.145325,798.580078 545.660522,793.547424
	C545.447815,791.338806 544.575378,789.193848 544.403809,786.904663
	C578.923096,783.929077 611.485535,775.498535 642.922058,759.940613
	C639.147522,756.848083 636.076294,754.331848 633.062744,751.470825
	C633.485657,750.585815 633.747681,749.703430 634.231812,749.557251
	C639.935791,747.836060 639.588745,743.915222 638.372559,739.320557
	C638.024292,738.004944 639.052185,736.352295 639.347046,734.834290
	C640.388306,729.472900 642.764221,723.904236 642.026917,718.789978
	C641.224548,713.224365 642.090820,710.070740 646.858948,707.417786
	C648.293335,706.619690 648.968323,704.456604 649.991150,702.918884
	C649.604675,702.743896 649.218201,702.568909 648.831665,702.393921
	C647.011780,703.111328 645.191895,703.828674 643.371948,704.546021
	C643.248169,703.050781 643.124390,701.555542 643.431274,700.000854
	C662.628540,701.655579 680.510742,706.115479 696.370178,716.855103
z"/>
  <path fill="#FCFBFC" opacity="1.000000" stroke="none"
        d="
M196.618927,503.865753
	C218.064957,503.868561 239.036606,503.957245 260.942810,504.032471
	C280.539764,504.016754 299.202301,503.969757 317.864502,504.031769
	C326.718628,504.061218 332.994202,509.764557 332.792511,517.354126
	C332.593475,524.845459 326.485626,530.100525 317.873779,530.130920
	C298.880371,530.197876 279.886871,530.240234 260.436981,530.222534
	C238.990387,530.185852 218.000198,530.219177 197.010025,530.252563
	C190.688202,530.219727 184.356094,530.390381 178.048706,530.071838
	C174.688232,529.902039 173.259415,531.152527 171.728500,534.097656
	C164.690567,547.636902 153.281387,555.035950 138.037491,555.222900
	C123.098404,555.406067 111.315674,548.856873 103.858238,535.701294
	C93.442116,517.326294 100.205322,493.808929 118.467896,483.891785
	C137.898010,473.340607 161.432602,480.279846 171.526947,499.828705
	C173.243500,503.152985 175.022461,504.333618 178.673691,504.110138
	C184.478790,503.754822 190.319122,503.974915 196.618927,503.865753
z"/>
  <path fill="#FCFBFC" opacity="1.000000" stroke="none"
        d="
M848.391235,530.237915
	C826.884338,530.257812 805.852417,530.200806 783.890869,530.148926
	C775.654541,530.143311 768.347778,530.160339 761.041382,530.115112
	C752.097107,530.059753 746.724731,525.167236 746.748230,517.165894
	C746.771729,509.156311 752.212341,504.139038 761.004089,504.024841
	C768.637939,503.925690 776.271851,503.831451 784.374512,503.811615
	C805.836914,503.888306 826.830444,503.888367 847.824036,503.888428
	C854.483948,503.927307 861.155457,504.186829 867.794922,503.837250
	C869.300354,503.757965 871.270325,501.854034 872.050964,500.299988
	C880.042725,484.389038 897.946411,475.857178 915.218140,479.947784
	C932.763489,484.103210 945.018555,499.371002 945.045898,517.108337
	C945.073547,535.028748 932.747925,550.267944 914.819397,554.479980
	C898.332153,558.353394 879.785889,549.894714 872.389648,534.565918
	C870.599365,530.855652 868.595642,529.852722 864.854309,530.053223
	C859.538269,530.338013 854.196838,530.148071 848.391235,530.237915
z"/>
  <path fill="#4371FA" opacity="1.000000" stroke="none"
        d="
M847.767456,503.477814
	C826.830444,503.888367 805.836914,503.888306 784.348389,503.378418
	C783.054688,493.925232 783.146790,484.790527 781.275574,476.077484
	C777.093933,456.605865 771.933533,437.344421 767.556580,417.997284
	C774.113159,416.840729 780.285034,415.684265 786.522095,414.515564
	C786.915771,416.735657 787.263550,418.696808 787.611328,420.657959
	C788.159607,420.719269 788.707947,420.780579 789.256226,420.841919
	C789.837280,418.982727 790.441345,417.130310 790.995178,415.263062
	C792.742554,409.371704 794.364380,403.395905 800.139343,399.926819
	C802.904785,398.265564 805.305359,396.599060 805.304871,392.759827
	C805.304199,387.296173 805.648987,381.825073 806.058594,376.373138
	C806.185181,374.687866 807.003967,373.054626 807.505859,371.397583
	C808.856567,372.348389 810.141235,373.416351 811.573059,374.223175
	C813.857056,375.510162 816.238831,376.623566 818.579285,377.810333
	C829.634521,401.395691 837.435120,426.084686 841.757812,451.698395
	C844.622559,468.672760 845.785889,485.934235 847.767456,503.477814
z"/>
  <path fill="#7A5BF9" opacity="1.000000" stroke="none"
        d="
M483.856781,192.247589
	C489.435028,191.565842 495.023285,190.231873 500.589783,190.317062
	C522.827454,190.657349 545.064941,191.274445 567.286926,192.174133
	C572.759766,192.395706 578.173828,194.069641 583.727417,195.710449
	C581.123047,198.762985 578.239746,201.023743 575.749756,203.656479
	C574.188660,205.307175 572.606812,207.374100 572.109009,209.505310
	C571.024048,214.150940 570.933411,219.035309 569.758301,223.649414
	C569.408997,225.020920 566.590820,226.919327 565.268982,226.666611
	C561.585083,225.962357 560.502502,227.398422 559.911072,230.596649
	C559.622559,232.156937 558.456970,233.555023 557.569519,235.254059
	C555.561218,233.900726 554.236328,233.007965 552.794617,232.036453
	C551.199463,234.239639 549.422302,236.035355 548.437012,238.192749
	C546.411682,242.627197 544.810120,247.255173 542.561401,251.817383
	C535.455444,251.658493 528.819885,251.279556 522.189209,251.351151
	C501.248077,251.577255 480.519928,253.904388 459.966034,257.745056
	C460.240570,255.984299 460.400543,254.528824 460.906250,253.205505
	C461.428558,251.838776 462.674927,250.673630 462.934967,249.294083
	C464.562958,240.656799 460.305115,230.206406 470.783905,224.330643
	C471.023651,224.196182 471.166931,223.775009 471.232544,223.461868
	C472.210266,218.794159 475.886108,217.008484 479.680420,215.109573
	C481.059143,214.419556 482.665619,212.672012 482.802673,211.273193
	C483.421509,204.957535 483.550964,198.593918 483.856781,192.247589
z"/>
  <path fill="#8559FA" opacity="1.000000" stroke="none"
        d="
M483.507172,192.175354
	C483.550964,198.593918 483.421509,204.957535 482.802673,211.273193
	C482.665619,212.672012 481.059143,214.419556 479.680420,215.109573
	C475.886108,217.008484 472.210266,218.794159 471.232544,223.461868
	C471.166931,223.775009 471.023651,224.196182 470.783905,224.330643
	C460.305115,230.206406 464.562958,240.656799 462.934967,249.294083
	C462.674927,250.673630 461.428558,251.838776 460.906250,253.205505
	C460.400543,254.528824 460.240570,255.984299 459.659363,257.955017
	C435.030457,264.418762 411.869812,273.380188 389.989319,285.620911
	C388.878204,282.344055 388.387695,278.642914 386.507050,275.892212
	C383.841980,271.994171 386.384399,270.334656 388.781342,268.358521
	C383.907349,264.636749 384.021332,264.725128 388.105042,259.458832
	C388.656433,258.747742 387.825714,255.815277 386.878204,255.298294
	C383.486176,253.447357 382.867157,252.166153 386.533661,249.881882
	C389.809082,247.841263 389.917328,244.815231 386.779938,242.198441
	C384.063202,239.932480 384.665741,238.556122 387.335724,237.114120
	C391.313629,234.965729 395.275604,232.787888 399.827545,230.304413
	C400.254242,227.589462 398.845245,225.488663 395.143738,226.084305
	C391.254242,226.710175 386.931091,227.103622 383.750916,229.109940
	C378.721710,232.282806 374.079956,231.329880 369.090363,230.065231
	C367.538055,229.671814 365.926270,229.513168 364.125488,229.019867
	C383.822968,217.358475 405.145752,209.284622 427.157593,203.125946
	C439.802307,199.588074 452.738617,197.048477 465.612732,194.394348
	C471.373596,193.206665 477.304077,192.841537 483.507172,192.175354
z"/>
  <path fill="#496CF7" opacity="1.000000" stroke="none"
        d="
M544.002441,787.019958
	C544.575378,789.193848 545.447815,791.338806 545.660522,793.547424
	C546.145325,798.580078 546.281616,803.645447 546.611389,808.694153
	C546.744568,810.732849 546.997192,812.764709 547.238159,814.794556
	C547.274231,815.098633 547.760620,815.488464 547.676697,815.647766
	C543.516418,823.539673 549.614502,831.885986 546.587585,839.870728
	C545.864197,841.778931 546.001526,844.013367 545.682617,846.583984
	C545.035645,846.871460 543.614014,847.503174 542.101379,848.470337
	C512.470398,851.135010 483.302246,848.319092 454.380066,842.350281
	C447.715454,840.974915 441.129456,839.218750 434.281982,837.072144
	C439.525574,831.028381 446.220428,828.713440 453.860413,828.769897
	C454.993042,828.778320 456.145294,828.624207 457.257782,828.395813
	C460.585754,827.712463 463.961639,826.178345 467.199493,826.442017
	C470.518738,826.712280 470.604614,825.378662 471.098633,823.004578
	C472.319061,817.139893 473.917419,811.354858 475.255341,805.513000
	C475.775574,803.241638 476.063629,800.910889 476.354309,798.594299
	C477.172302,792.075195 472.492828,787.699036 470.395203,782.438721
	C494.988770,787.227783 519.445923,787.911682 544.002441,787.019958
z"/>
  <path fill="#5269F7" opacity="1.000000" stroke="none"
        d="
M469.998077,782.471191
	C472.492828,787.699036 477.172302,792.075195 476.354309,798.594299
	C476.063629,800.910889 475.775574,803.241638 475.255341,805.513000
	C473.917419,811.354858 472.319061,817.139893 471.098633,823.004578
	C470.604614,825.378662 470.518738,826.712280 467.199493,826.442017
	C463.961639,826.178345 460.585754,827.712463 457.257782,828.395813
	C456.145294,828.624207 454.993042,828.778320 453.860413,828.769897
	C446.220428,828.713440 439.525574,831.028381 433.988708,836.863525
	C413.526184,832.314026 394.136688,824.677856 375.341278,815.214172
	C380.773865,811.508179 383.968414,806.857849 385.215912,800.591003
	C385.556213,798.881470 387.647827,796.398621 389.142700,796.241699
	C394.622925,795.665955 395.532013,791.470825 395.788300,787.761780
	C396.148560,782.547668 398.914551,780.561951 403.307343,779.356140
	C408.906067,777.819397 410.828033,774.393677 409.745728,768.646851
	C409.351318,766.552795 409.238739,764.405579 409.337006,762.335205
	C412.392792,763.630676 415.015747,765.166077 417.840851,766.068726
	C435.201172,771.615723 452.607239,777.019653 469.998077,782.471191
z"/>
  <path fill="#6F5EF8" opacity="1.000000" stroke="none"
        d="
M543.034119,251.803497
	C544.810120,247.255173 546.411682,242.627197 548.437012,238.192749
	C549.422302,236.035355 551.199463,234.239639 552.794617,232.036453
	C554.236328,233.007965 555.561218,233.900726 557.569519,235.254059
	C558.456970,233.555023 559.622559,232.156937 559.911072,230.596649
	C560.502502,227.398422 561.585083,225.962357 565.268982,226.666611
	C566.590820,226.919327 569.408997,225.020920 569.758301,223.649414
	C570.933411,219.035309 571.024048,214.150940 572.109009,209.505310
	C572.606812,207.374100 574.188660,205.307175 575.749756,203.656479
	C578.239746,201.023743 581.123047,198.762985 583.992615,196.020996
	C602.013733,196.960266 618.961975,201.821121 635.379822,208.774551
	C637.014648,209.466965 638.714294,210.006332 640.691528,211.275513
	C640.660645,217.717529 641.717163,223.922516 635.806274,227.965714
	C635.173401,228.398621 635.299744,229.827759 634.874756,230.697464
	C632.697144,235.153946 631.899719,240.749146 625.186523,241.348801
	C624.050842,241.450241 622.357239,243.909897 622.241882,245.383392
	C621.653870,252.895416 618.780823,258.827911 612.085388,262.711945
	C611.413879,263.101501 611.287109,264.430084 610.517029,265.270233
	C588.348206,257.816345 565.875305,253.888885 543.034119,251.803497
z"/>
  <path fill="#6562F8" opacity="1.000000" stroke="none"
        d="
M610.907471,265.322845
	C611.287109,264.430084 611.413879,263.101501 612.085388,262.711945
	C618.780823,258.827911 621.653870,252.895416 622.241882,245.383392
	C622.357239,243.909897 624.050842,241.450241 625.186523,241.348801
	C631.899719,240.749146 632.697144,235.153946 634.874756,230.697464
	C635.299744,229.827759 635.173401,228.398621 635.806274,227.965714
	C641.717163,223.922516 640.660645,217.717529 640.997986,211.490265
	C643.223145,211.501877 645.664307,211.517349 647.642273,212.482330
	C664.416199,220.665909 681.105713,229.022476 697.701477,237.763123
	C696.388245,240.735886 694.286499,243.243683 694.204224,245.816055
	C694.067017,250.105469 692.422424,253.216064 690.108704,256.638916
	C687.485535,260.519531 685.442749,265.006500 684.162476,269.517822
	C682.992554,273.640564 680.889465,276.217834 677.134583,277.876526
	C675.705994,278.507599 673.530884,279.372253 673.303284,280.465179
	C672.326904,285.152863 668.916565,285.125519 666.573547,285.437897
	C664.210571,283.215210 662.233398,280.134644 660.940247,280.399109
	C658.429871,280.912445 656.303772,283.304993 653.675781,284.849121
	C639.191223,278.293823 625.049377,271.808319 610.907471,265.322845
z"/>
  <path fill="#7A5BF9" opacity="1.000000" stroke="none"
        d="
M232.020294,673.989807
	C221.181610,654.097900 214.230026,632.740051 208.685822,610.520264
	C210.068069,608.302734 211.107910,606.610535 211.969147,604.831848
	C212.505219,603.724609 212.505524,601.665710 213.201599,601.440430
	C217.748581,599.968567 222.399277,598.793030 227.057739,597.697937
	C230.354858,596.922791 233.611084,596.953613 235.062607,592.543213
	C235.727005,590.524414 239.061066,588.909424 241.512848,588.064819
	C245.209702,586.791260 248.340027,585.695618 248.265350,580.910217
	C248.216782,577.798218 248.548447,574.645569 249.067642,571.571655
	C249.410339,569.542786 249.840057,566.549011 251.188385,565.859253
	C254.759064,564.032715 258.850189,563.223511 262.849792,562.352722
	C263.522369,565.967834 263.855011,569.296997 264.674194,572.501892
	C268.777771,588.556580 273.008759,604.578796 277.007965,620.893677
	C274.576752,619.411133 272.332520,617.647339 269.597839,615.498047
	C267.401917,617.140625 263.308197,618.862305 264.241821,623.418152
	C264.881134,626.537842 263.599548,627.998352 261.763214,629.733459
	C258.402985,632.908569 255.093628,636.137756 251.791840,639.373779
	C251.463943,639.695129 251.222565,640.196594 251.130356,640.652771
	C249.735062,647.556396 248.118515,654.429077 247.089050,661.388184
	C246.398621,666.055359 243.422577,669.154358 238.684158,670.143005
	C236.299149,670.640564 234.231476,672.659058 232.020294,673.989807
z"/>
  <path fill="#8559FA" opacity="1.000000" stroke="none"
        d="
M262.734222,562.009521
	C258.850189,563.223511 254.759064,564.032715 251.188385,565.859253
	C249.840057,566.549011 249.410339,569.542786 249.067642,571.571655
	C248.548447,574.645569 248.216782,577.798218 248.265350,580.910217
	C248.340027,585.695618 245.209702,586.791260 241.512848,588.064819
	C239.061066,588.909424 235.727005,590.524414 235.062607,592.543213
	C233.611084,596.953613 230.354858,596.922791 227.057739,597.697937
	C222.399277,598.793030 217.748581,599.968567 213.201599,601.440430
	C212.505524,601.665710 212.505219,603.724609 211.969147,604.831848
	C211.107910,606.610535 210.068069,608.302734 208.670502,610.098145
	C202.391220,591.561035 199.784317,572.377991 198.190659,553.034607
	C197.591080,545.757019 197.446960,538.441895 197.052612,530.698242
	C218.000198,530.219177 238.990387,530.185852 260.406494,530.667603
	C261.466339,541.458374 262.100281,551.733948 262.734222,562.009521
z"/>
  <path fill="#5269F7" opacity="1.000000" stroke="none"
        d="
M736.977783,266.085602
	C749.609253,279.120758 762.240662,292.155945 774.815430,305.826172
	C773.001587,307.631378 771.290100,308.878601 769.477356,309.955383
	C765.901978,312.079163 764.440063,314.195709 768.602966,317.387207
	C769.347107,317.957672 769.438660,320.586304 768.783264,321.556305
	C766.532349,324.887665 765.376526,328.104889 766.356323,332.255280
	C766.653503,333.514282 764.577332,336.695526 763.732544,336.643738
	C757.728943,336.275360 757.062561,339.917114 756.828918,344.465454
	C756.758850,345.829681 755.966003,347.488922 754.954590,348.407715
	C752.382507,350.744202 748.997986,352.334534 746.871826,354.974915
	C744.378296,358.071350 742.063354,360.845520 737.595459,361.113281
	C736.529541,359.666107 735.745972,358.386047 734.973755,356.649597
	C734.986450,354.386841 735.239807,352.531952 734.904907,350.790253
	C734.662292,349.528931 733.639465,348.417725 732.964539,347.239563
	C731.854065,348.100739 730.743530,348.961914 729.334961,349.631104
	C719.675171,339.298065 710.313416,329.157013 701.258118,318.863190
	C704.270203,316.356201 707.493835,314.374237 709.530762,311.539551
	C711.439392,308.883484 712.817871,306.358093 716.447449,305.789398
	C717.429871,305.635437 718.544617,303.906464 718.911438,302.692688
	C720.058167,298.898560 720.696472,294.946838 721.916321,291.180756
	C722.363464,289.800293 723.771118,287.889404 724.940369,287.735260
	C729.185974,287.175598 730.041016,284.477478 730.612793,280.955048
	C730.944702,278.910614 732.114624,276.993164 732.966553,275.044373
	C734.276978,272.046448 735.638123,269.070709 736.977783,266.085602
z"/>
  <path fill="#695EF7" opacity="1.000000" stroke="none"
        d="
M294.052551,758.975525
	C283.442078,747.190063 272.820587,735.414490 262.237671,723.604309
	C261.137695,722.376770 260.266937,720.943726 259.420715,719.164246
	C262.542114,716.128174 265.711823,713.705505 268.438202,710.858398
	C269.590637,709.654846 270.733307,707.252808 270.292786,705.920410
	C268.461151,700.380249 269.495087,695.432007 271.248291,690.044312
	C272.703064,685.573730 274.825226,683.624451 279.283752,684.010925
	C283.194031,684.349915 284.620300,682.088989 284.955139,678.703247
	C285.085052,677.389954 284.893768,676.045166 285.019867,674.731201
	C285.365753,671.127441 284.905182,667.064941 286.465515,664.070740
	C287.911438,661.295898 291.556061,659.666809 294.491791,657.775391
	C295.507660,659.305542 296.163147,660.666809 297.036377,661.870178
	C307.002106,675.604248 317.001068,689.314209 326.985443,703.407288
	C324.859070,709.037720 322.800323,709.221802 318.373688,705.210571
	C317.051636,704.012512 314.671906,703.981689 312.776794,703.416077
	C312.451111,705.347839 311.962219,707.269531 311.841888,709.213989
	C311.698364,711.534119 312.132446,713.907959 311.834656,716.195862
	C311.518616,718.623718 310.219452,720.953674 310.078125,723.369019
	C309.555573,732.298523 309.217499,741.243530 309.057587,750.187134
	C308.995178,753.677979 307.631958,756.058105 304.403412,756.954285
	C301.026337,757.891785 297.508728,758.322998 294.052551,758.975525
z"/>
  <path fill="#6562F8" opacity="1.000000" stroke="none"
        d="
M294.192413,759.276611
	C297.508728,758.322998 301.026337,757.891785 304.403412,756.954285
	C307.631958,756.058105 308.995178,753.677979 309.057587,750.187134
	C309.217499,741.243530 309.555573,732.298523 310.078125,723.369019
	C310.219452,720.953674 311.518616,718.623718 311.834656,716.195862
	C312.132446,713.907959 311.698364,711.534119 311.841888,709.213989
	C311.962219,707.269531 312.451111,705.347839 312.776794,703.416077
	C314.671906,703.981689 317.051636,704.012512 318.373688,705.210571
	C322.800323,709.221802 324.859070,709.037720 327.281860,703.554504
	C331.345276,707.085693 334.895081,711.091125 338.909241,714.559082
	C349.183380,723.435303 359.664185,732.072327 370.001282,741.141907
	C369.476440,741.854248 369.013458,742.554932 368.548676,742.556152
	C361.884247,742.573242 359.293335,744.562988 358.202332,751.033691
	C357.601074,754.599365 357.571777,758.266907 356.880707,761.809753
	C356.535187,763.580933 355.351501,766.582764 354.430817,766.627258
	C347.000488,766.986511 347.541656,773.243286 346.175934,777.679565
	C345.407013,780.177185 344.920349,781.357056 342.140411,782.203918
	C338.069031,783.444214 333.360229,784.753174 332.584778,790.256653
	C319.833954,780.030334 307.083099,769.803955 294.192413,759.276611
z"/>
  <path fill="#6F5EF8" opacity="1.000000" stroke="none"
        d="
M294.232544,657.533203
	C291.556061,659.666809 287.911438,661.295898 286.465515,664.070740
	C284.905182,667.064941 285.365753,671.127441 285.019867,674.731201
	C284.893768,676.045166 285.085052,677.389954 284.955139,678.703247
	C284.620300,682.088989 283.194031,684.349915 279.283752,684.010925
	C274.825226,683.624451 272.703064,685.573730 271.248291,690.044312
	C269.495087,695.432007 268.461151,700.380249 270.292786,705.920410
	C270.733307,707.252808 269.590637,709.654846 268.438202,710.858398
	C265.711823,713.705505 262.542114,716.128174 259.250549,718.873291
	C249.999924,704.250916 241.050354,689.477661 232.060547,674.347107
	C234.231476,672.659058 236.299149,670.640564 238.684158,670.143005
	C243.422577,669.154358 246.398621,666.055359 247.089050,661.388184
	C248.118515,654.429077 249.735062,647.556396 251.130356,640.652771
	C251.222565,640.196594 251.463943,639.695129 251.791840,639.373779
	C255.093628,636.137756 258.402985,632.908569 261.763214,629.733459
	C263.599548,627.998352 264.881134,626.537842 264.241821,623.418152
	C263.308197,618.862305 267.401917,617.140625 269.597839,615.498047
	C272.332520,617.647339 274.576752,619.411133 277.249023,621.173096
	C283.195557,633.291870 288.714050,645.412537 294.232544,657.533203
z"/>
  <path fill="#5C65F7" opacity="1.000000" stroke="none"
        d="
M736.807373,265.796509
	C735.638123,269.070709 734.276978,272.046448 732.966553,275.044373
	C732.114624,276.993164 730.944702,278.910614 730.612793,280.955048
	C730.041016,284.477478 729.185974,287.175598 724.940369,287.735260
	C723.771118,287.889404 722.363464,289.800293 721.916321,291.180756
	C720.696472,294.946838 720.058167,298.898560 718.911438,302.692688
	C718.544617,303.906464 717.429871,305.635437 716.447449,305.789398
	C712.817871,306.358093 711.439392,308.883484 709.530762,311.539551
	C707.493835,314.374237 704.270203,316.356201 700.939697,318.762451
	C699.354614,317.905457 698.483948,316.872375 697.420837,316.106140
	C682.969055,305.688782 668.490479,295.308411 654.018494,284.918945
	C656.303772,283.304993 658.429871,280.912445 660.940247,280.399109
	C662.233398,280.134644 664.210571,283.215210 666.573547,285.437897
	C668.916565,285.125519 672.326904,285.152863 673.303284,280.465179
	C673.530884,279.372253 675.705994,278.507599 677.134583,277.876526
	C680.889465,276.217834 682.992554,273.640564 684.162476,269.517822
	C685.442749,265.006500 687.485535,260.519531 690.108704,256.638916
	C692.422424,253.216064 694.067017,250.105469 694.204224,245.816055
	C694.286499,243.243683 696.388245,240.735886 697.921875,238.027954
	C711.053162,247.073715 723.845032,256.290588 736.807373,265.796509
z"/>
  <path fill="#5C65F7" opacity="1.000000" stroke="none"
        d="
M332.626892,790.245239
	C333.360229,784.753174 338.069031,783.444214 342.140411,782.203918
	C344.920349,781.357056 345.407013,780.177185 346.175934,777.679565
	C347.541656,773.243286 347.000488,766.986511 354.430817,766.627258
	C355.351501,766.582764 356.535187,763.580933 356.880707,761.809753
	C357.571777,758.266907 357.601074,754.599365 358.202332,751.033691
	C359.293335,744.562988 361.884247,742.573242 368.548676,742.556152
	C369.013458,742.554932 369.476440,741.854248 370.366699,741.175537
	C377.435150,744.896240 383.983032,749.087280 390.747345,752.893860
	C396.705170,756.246643 402.904755,759.169800 408.997589,762.282654
	C409.238739,764.405579 409.351318,766.552795 409.745728,768.646851
	C410.828033,774.393677 408.906067,777.819397 403.307343,779.356140
	C398.914551,780.561951 396.148560,782.547668 395.788300,787.761780
	C395.532013,791.470825 394.622925,795.665955 389.142700,796.241699
	C387.647827,796.398621 385.556213,798.881470 385.215912,800.591003
	C383.968414,806.857849 380.773865,811.508179 375.095886,814.962524
	C374.778076,815.121521 374.347839,815.080505 374.153961,814.730469
	C373.609161,814.323975 373.258209,814.267395 372.907288,814.210876
	C360.063324,806.765442 347.219391,799.320007 334.048248,791.343750
	C333.390228,790.598633 333.059387,790.384399 332.728546,790.170105
	C332.728546,790.170105 332.669006,790.233887 332.626892,790.245239
M402.474304,773.165039
	C402.271515,774.153076 402.068695,775.141174 401.865906,776.129211
	C402.584320,776.158508 403.302734,776.187744 404.021149,776.217041
	C403.733765,775.223450 403.446381,774.229919 402.474304,773.165039
z"/>
  <path fill="#4B6DF8" opacity="1.000000" stroke="none"
        d="
M737.877869,361.280365
	C742.063354,360.845520 744.378296,358.071350 746.871826,354.974915
	C748.997986,352.334534 752.382507,350.744202 754.954590,348.407715
	C755.966003,347.488922 756.758850,345.829681 756.828918,344.465454
	C757.062561,339.917114 757.728943,336.275360 763.732544,336.643738
	C764.577332,336.695526 766.653503,333.514282 766.356323,332.255280
	C765.376526,328.104889 766.532349,324.887665 768.783264,321.556305
	C769.438660,320.586304 769.347107,317.957672 768.602966,317.387207
	C764.440063,314.195709 765.901978,312.079163 769.477356,309.955383
	C771.290100,308.878601 773.001587,307.631378 774.925049,306.141174
	C781.036377,313.929779 786.981384,322.038361 792.984375,330.848083
	C793.711670,332.357300 794.380981,333.165375 795.050232,333.973480
	C795.050232,333.973480 794.997192,333.994507 795.010498,334.351196
	C795.875488,335.764709 796.727112,336.821594 797.578735,337.878479
	C797.831604,337.969940 797.995300,338.144897 798.058350,338.979553
	C798.593262,341.574738 799.139771,343.593689 799.742737,345.821259
	C794.506897,348.051544 794.541931,352.993500 794.185425,357.254333
	C793.802124,361.835724 793.281250,365.167877 788.684998,363.694092
	C787.808655,366.208313 787.155945,368.130035 786.466125,370.038330
	C786.146484,370.922394 785.202698,372.065125 785.481628,372.605682
	C788.017212,377.518829 785.368896,380.590515 782.042480,383.654236
	C781.321777,384.317963 781.206177,385.732361 780.990540,386.835907
	C779.165527,396.175385 779.177979,396.178162 769.769897,397.008087
	C769.440002,397.037231 769.015076,396.919952 768.791321,397.084412
	C763.700439,400.826050 761.313660,396.433960 758.359558,393.672028
	C757.672180,393.029327 756.839478,392.542145 755.824890,391.746643
	C749.676758,381.433380 743.777283,371.356873 737.877869,361.280365
z"/>
  <path fill="#496CF7" opacity="1.000000" stroke="none"
        d="
M756.073608,391.983398
	C756.839478,392.542145 757.672180,393.029327 758.359558,393.672028
	C761.313660,396.433960 763.700439,400.826050 768.791321,397.084412
	C769.015076,396.919952 769.440002,397.037231 769.769897,397.008087
	C779.177979,396.178162 779.165527,396.175385 780.990540,386.835907
	C781.206177,385.732361 781.321777,384.317963 782.042480,383.654236
	C785.368896,380.590515 788.017212,377.518829 785.481628,372.605682
	C785.202698,372.065125 786.146484,370.922394 786.466125,370.038330
	C787.155945,368.130035 787.808655,366.208313 788.684998,363.694092
	C793.281250,365.167877 793.802124,361.835724 794.185425,357.254333
	C794.541931,352.993500 794.506897,348.051544 799.742737,345.821259
	C799.139771,343.593689 798.593262,341.574738 798.065552,339.164795
	C804.859863,351.537659 811.635437,364.301575 818.495117,377.437897
	C816.238831,376.623566 813.857056,375.510162 811.573059,374.223175
	C810.141235,373.416351 808.856567,372.348389 807.505859,371.397583
	C807.003967,373.054626 806.185181,374.687866 806.058594,376.373138
	C805.648987,381.825073 805.304199,387.296173 805.304871,392.759827
	C805.305359,396.599060 802.904785,398.265564 800.139343,399.926819
	C794.364380,403.395905 792.742554,409.371704 790.995178,415.263062
	C790.441345,417.130310 789.837280,418.982727 789.256226,420.841919
	C788.707947,420.780579 788.159607,420.719269 787.611328,420.657959
	C787.263550,418.696808 786.915771,416.735657 786.522095,414.515564
	C780.285034,415.684265 774.113159,416.840729 767.348694,417.698792
	C763.195251,408.928070 759.634399,400.455750 756.073608,391.983398
z"/>
  <path fill="#000029" opacity="1.000000" stroke="none"
        d="
M2.490010,857.581665
	C2.176701,828.995178 2.011317,800.170715 2.007796,771.346191
	C1.984450,580.218445 1.995740,389.090698 1.997782,197.962952
	C1.997796,196.630066 2.026341,195.297195 2.095578,193.503693
	C2.149592,193.043091 2.564558,193.009369 2.773200,193.474213
	C2.984158,413.961761 2.986475,633.984436 2.988792,854.007141
	C2.896796,855.119324 2.804802,856.231445 2.490010,857.581665
z"/>
  <path fill="#09163F" opacity="1.000000" stroke="none"
        d="
M3.274644,853.702148
	C2.986475,633.984436 2.984158,413.961761 2.981333,193.470520
	C3.320677,194.733124 3.957881,196.464203 3.958236,198.195435
	C4.002757,415.120483 4.001245,632.045532 3.982196,848.970581
	C3.982067,850.446106 3.707118,851.921570 3.274644,853.702148
z"/>
  <path fill="#4371FA" opacity="1.000000" stroke="none"
        d="
M752.385620,758.048828
	C752.066956,751.808655 752.659241,751.162415 758.905151,751.243408
	C757.129700,753.554688 754.922791,755.757324 752.385620,758.048828
z"/>
  <path fill="#8559FA" opacity="1.000000" stroke="none"
        d="
M357.357971,232.347183
	C357.960083,237.838638 357.951385,237.844284 350.095825,236.916901
	C352.120667,235.403030 354.562347,233.921326 357.357971,232.347183
z"/>
  <path fill="#4371FA" opacity="1.000000" stroke="none"
        d="
M691.705811,807.206665
	C692.581970,806.130249 693.591614,805.319763 694.601318,804.509277
	C695.349670,806.624512 696.097961,808.739685 696.745361,811.312256
	C695.042664,810.337219 693.440979,808.904846 691.705811,807.206665
z"/>
  <path fill="#4371FA" opacity="1.000000" stroke="none"
        d="
M766.451782,744.300903
	C765.235535,740.885864 767.362122,739.669250 770.716614,739.072449
	C769.653198,740.736389 768.201294,742.433350 766.451782,744.300903
z"/>
  <path fill="#4371FA" opacity="1.000000" stroke="none"
        d="
M779.442871,729.323486
	C779.860657,728.361511 780.565918,727.230591 781.634277,726.050476
	C781.241638,727.052368 780.485962,728.103455 779.442871,729.323486
z"/>
  <path fill="#496CF7" opacity="1.000000" stroke="none"
        d="
M797.469849,337.551025
	C796.727112,336.821594 795.875488,335.764709 795.027893,334.328491
	C795.808289,335.040619 796.584656,336.132080 797.469849,337.551025
z"/>
  <path fill="#496CF7" opacity="1.000000" stroke="none"
        d="
M794.996948,333.659546
	C794.380981,333.165375 793.711670,332.357300 793.056824,331.179993
	C793.695374,331.655701 794.319519,332.500641 794.996948,333.659546
z"/>
  <path fill="#4371FA" opacity="1.000000" stroke="none"
        d="
M772.259521,737.851135
	C772.241394,737.446228 772.483154,736.901672 773.028076,736.274536
	C773.060608,736.698425 772.789978,737.205017 772.259521,737.851135
z"/>
  <path fill="#5269F7" opacity="1.000000" stroke="none"
        d="
M373.034119,814.396423
	C373.258209,814.267395 373.609161,814.323975 373.981995,814.599609
	C373.686371,814.870056 373.405396,814.791138 373.034119,814.396423
z"/>
  <path fill="#4371FA" opacity="1.000000" stroke="none"
        d="
M782.266174,725.837891
	C782.287842,725.429199 782.575378,724.861572 783.184448,724.194702
	C783.181335,724.623352 782.856628,725.151184 782.266174,725.837891
z"/>
  <path fill="#8559FA" opacity="1.000000" stroke="none"
        d="
M340.474487,242.671844
	C340.320709,243.043762 339.851715,243.466537 339.035461,243.887360
	C339.178558,243.497833 339.668915,243.110260 340.474487,242.671844
z"/>
  <path fill="#4371FA" opacity="1.000000" stroke="none"
        d="
M759.505432,751.280579
	C759.574402,750.917969 759.917725,750.491638 760.552673,750.010254
	C760.489441,750.375732 760.134583,750.796326 759.505432,751.280579
z"/>
  <path fill="#6562F8" opacity="1.000000" stroke="none"
        d="
M332.805603,790.464294
	C333.059387,790.384399 333.390228,790.598633 333.810913,791.105347
	C333.561401,791.184692 333.222046,790.971558 332.805603,790.464294
z"/>
  <path fill="#8559FA" opacity="1.000000" stroke="none"
        d="
M341.619507,241.778748
	C341.689301,242.009003 341.480011,242.328659 340.981567,242.717987
	C340.908386,242.481186 341.124420,242.174667 341.619507,241.778748
z"/>
  <path fill="#4371FA" opacity="1.000000" stroke="none"
        d="
M774.417603,735.152161
	C774.349670,734.920410 774.561218,734.600220 775.054565,734.189392
	C775.123352,734.420410 774.910217,734.742065 774.417603,735.152161
z"/>
  <path fill="#4371FA" opacity="1.000000" stroke="none"
        d="
M773.484253,736.207764
	C773.381592,735.966553 773.547485,735.641968 773.987122,735.235718
	C774.091492,735.477478 773.922119,735.800903 773.484253,736.207764
z"/>
  <path fill="#09163F" opacity="1.000000" stroke="none"
        d="
M755.824829,391.746643
	C759.634399,400.455750 763.195251,408.928070 766.963928,417.698853
	C771.933533,437.344421 777.093933,456.605865 781.275574,476.077484
	C783.146790,484.790527 783.054688,493.925232 783.879639,503.301758
	C776.271851,503.831451 768.637939,503.925690 761.004089,504.024841
	C752.212341,504.139038 746.771729,509.156311 746.748230,517.165894
	C746.724731,525.167236 752.097107,530.059753 761.041382,530.115112
	C768.347778,530.160339 775.654541,530.143311 783.419434,530.218140
	C783.579224,561.672485 777.996033,592.106812 767.535889,621.691101
	C754.526855,658.484497 733.600769,690.071777 705.308472,716.854614
	C704.237732,717.868225 703.078491,718.788330 701.905701,719.799316
	C700.145325,718.806030 698.570740,717.917542 696.683167,716.942078
	C680.510742,706.115479 662.628540,701.655579 643.000122,699.910400
	C639.198425,700.138184 636.143982,701.040161 633.338928,700.541077
	C622.907166,698.684753 613.175903,701.292358 603.778687,705.074280
	C599.779907,706.683533 595.969666,709.584839 593.005188,712.766724
	C587.093933,719.111511 588.033813,732.979797 599.887146,737.038574
	C611.277588,740.938782 621.993042,746.810242 633.005066,751.815552
	C636.076294,754.331848 639.147522,756.848083 642.922058,759.940613
	C611.485535,775.498535 578.923096,783.929077 544.403809,786.904663
	C519.445923,787.911682 494.988770,787.227783 470.395203,782.438721
	C452.607239,777.019653 435.201172,771.615723 417.840851,766.068726
	C415.015747,765.166077 412.392792,763.630676 409.337006,762.335205
	C402.904755,759.169800 396.705170,756.246643 390.747345,752.893860
	C383.983032,749.087280 377.435150,744.896240 370.427734,740.838623
	C359.664185,732.072327 349.183380,723.435303 338.909241,714.559082
	C334.895081,711.091125 331.345276,707.085693 327.287567,703.177856
	C317.001068,689.314209 307.002106,675.604248 297.036377,661.870178
	C296.163147,660.666809 295.507660,659.305542 294.491821,657.775391
	C288.714050,645.412537 283.195557,633.291870 277.435974,620.891785
	C273.008759,604.578796 268.777771,588.556580 264.674194,572.501892
	C263.855011,569.296997 263.522369,565.967834 262.849792,562.352722
	C262.100281,551.733948 261.466339,541.458374 260.862915,530.737732
	C279.886871,530.240234 298.880371,530.197876 317.873779,530.130920
	C326.485626,530.100525 332.593475,524.845459 332.792511,517.354126
	C332.994202,509.764557 326.718628,504.061218 317.864502,504.031769
	C299.202301,503.969757 280.539764,504.016754 261.402100,503.961365
	C261.676117,473.307007 268.100922,443.830444 278.941406,415.319366
	C298.648773,363.487946 332.376099,322.961609 379.123413,292.350281
	C379.811920,291.725708 380.034332,291.441742 380.256714,291.157745
	C380.256714,291.157745 380.173584,291.235809 380.543793,291.185669
	C382.400421,290.132263 383.886841,289.128967 385.373260,288.125702
	C386.742554,287.435455 388.111816,286.745209 389.735229,285.837952
	C411.869812,273.380188 435.030457,264.418762 459.696625,258.318329
	C480.519928,253.904388 501.248077,251.577255 522.189209,251.351151
	C528.819885,251.279556 535.455444,251.658493 542.561401,251.817368
	C565.875305,253.888885 588.348206,257.816345 610.517029,265.270233
	C625.049377,271.808319 639.191223,278.293823 653.675781,284.849121
	C668.490479,295.308411 682.969055,305.688782 697.420837,316.106140
	C698.483948,316.872375 699.354614,317.905457 700.633179,318.915222
	C710.313416,329.157013 719.675171,339.298065 729.432129,349.915375
	C731.539001,352.629791 733.250671,354.867889 734.962402,357.105988
	C735.745972,358.386047 736.529541,359.666107 737.595459,361.113281
	C743.777283,371.356873 749.676758,381.433380 755.824829,391.746643
M728.572937,642.376526
	C728.710083,641.566711 728.966614,640.756897 728.967041,639.947021
	C728.985596,603.870605 728.991150,567.794189 728.939514,531.717834
	C728.937744,530.480957 728.335449,529.244995 727.782837,527.142029
	C727.858154,524.759888 727.933472,522.377747 728.573853,519.385132
	C728.711304,518.574280 728.968445,517.763428 728.969055,516.952515
	C728.991211,485.647522 729.004944,454.342499 728.941101,423.037628
	C728.938293,421.670258 728.195007,420.304382 727.329590,418.390076
	C724.665527,413.522949 722.967468,407.657379 719.159241,403.972870
	C706.936768,392.147491 687.795166,395.468262 677.880432,410.531555
	C666.617859,427.642883 655.494080,444.845551 644.275391,461.985901
	C635.443359,475.479858 626.558838,488.939453 617.528809,502.670959
	C616.510193,501.111908 615.653076,499.895233 614.892029,498.621155
	C597.469971,469.457397 580.112610,440.254791 562.613953,411.137115
	C556.845032,401.537628 548.334045,396.019348 536.908386,397.190643
	C525.828979,398.326477 518.303040,404.699493 514.590210,415.306244
	C491.665710,480.796478 468.761566,546.293884 445.829254,611.781372
	C443.232971,619.195618 440.502960,626.562988 437.391846,635.179199
	C430.641357,615.619690 424.229279,597.418396 418.072571,579.131226
	C399.318970,523.427673 380.697845,467.679626 361.942505,411.976685
	C358.052948,400.424652 346.162903,394.440857 335.186157,398.173279
	C324.708893,401.735840 319.576874,413.208038 323.368500,424.806702
	C325.849579,432.396332 328.449402,439.947510 331.039093,447.501160
	C354.949097,517.241699 378.869598,586.978760 402.784180,656.717712
	C407.589294,670.730286 421.577911,680.614258 436.924561,680.825256
	C451.561005,681.026489 466.353790,671.322510 471.007782,658.178589
	C487.389465,611.913086 503.681915,565.615906 520.016479,519.333740
	C527.402405,498.406677 534.807861,477.486572 542.381042,456.063934
	C543.332397,457.384277 543.954041,458.142731 544.464111,458.970001
	C560.456848,484.907196 576.583618,510.763336 592.373047,536.823853
	C603.549438,555.270508 628.038757,556.164734 640.011597,538.341553
	C650.042969,523.408386 660.187622,508.551239 670.293945,493.668457
	C675.566467,485.903961 680.864441,478.156738 686.150940,470.401733
	C687.084045,472.440887 687.083862,474.203766 687.084106,475.966614
	C687.087097,495.296600 687.093445,514.626587 687.092651,533.956604
	C687.091064,569.617249 687.052429,605.277954 687.103271,640.938477
	C687.116943,650.516541 693.000488,658.362183 701.665039,660.799805
	C710.138000,663.183594 719.581604,659.787964 724.353333,652.170837
	C726.074036,649.424194 726.821838,646.067932 728.572937,642.376526
z"/>
  <path fill="#8559FA" opacity="1.000000" stroke="none"
        d="
M384.963440,288.086792
	C383.886841,289.128967 382.400421,290.132263 380.593262,291.214081
	C379.702393,290.165009 379.132294,289.037415 378.107513,287.010529
	C380.694885,287.426910 382.624237,287.737396 384.963440,288.086792
z"/>
  <path fill="#8559FA" opacity="1.000000" stroke="none"
        d="
M379.986694,291.226318
	C380.034332,291.441742 379.811920,291.725708 379.317047,292.078735
	C379.268616,291.863495 379.492645,291.579193 379.986694,291.226318
z"/>
  <path fill="#496CF7" opacity="1.000000" stroke="none"
        d="
M633.062744,751.470825
	C621.993042,746.810242 611.277588,740.938782 599.887146,737.038574
	C588.033813,732.979797 587.093933,719.111511 593.005188,712.766724
	C595.969666,709.584839 599.779907,706.683533 603.778687,705.074280
	C613.175903,701.292358 622.907166,698.684753 633.338928,700.541077
	C636.143982,701.040161 639.198425,700.138184 642.569458,699.969849
	C643.124390,701.555542 643.248169,703.050781 643.371948,704.546021
	C645.191895,703.828674 647.011780,703.111328 648.831665,702.393921
	C649.218201,702.568909 649.604675,702.743896 649.991150,702.918884
	C648.968323,704.456604 648.293335,706.619690 646.858948,707.417786
	C642.090820,710.070740 641.224548,713.224365 642.026917,718.789978
	C642.764221,723.904236 640.388306,729.472900 639.347046,734.834290
	C639.052185,736.352295 638.024292,738.004944 638.372559,739.320557
	C639.588745,743.915222 639.935791,747.836060 634.231812,749.557251
	C633.747681,749.703430 633.485657,750.585815 633.062744,751.470825
z"/>
  <path fill="#496CF7" opacity="1.000000" stroke="none"
        d="
M734.973755,356.649597
	C733.250671,354.867889 731.539001,352.629791 729.730225,350.107361
	C730.743530,348.961914 731.854065,348.100739 732.964539,347.239563
	C733.639465,348.417725 734.662292,349.528931 734.904907,350.790253
	C735.239807,352.531952 734.986450,354.386841 734.973755,356.649597
z"/>
  <path fill="#5269F7" opacity="1.000000" stroke="none"
        d="
M402.816650,773.200684
	C403.446381,774.229919 403.733765,775.223450 404.021149,776.217041
	C403.302734,776.187744 402.584320,776.158508 401.865906,776.129211
	C402.068695,775.141174 402.271515,774.153076 402.816650,773.200684
z"/>
  <path fill="#FBFBFB" opacity="1.000000" stroke="none"
        d="
M728.008789,519.995605
	C727.933472,522.377747 727.858154,524.759888 727.805786,528.035156
	C727.816101,538.891235 727.775146,548.854248 727.796021,558.817139
	C727.854919,586.874695 727.939270,614.932251 728.013550,642.989807
	C726.821838,646.067932 726.074036,649.424194 724.353333,652.170837
	C719.581604,659.787964 710.138000,663.183594 701.665039,660.799805
	C693.000488,658.362183 687.116943,650.516541 687.103271,640.938477
	C687.052429,605.277954 687.091064,569.617249 687.092651,533.956604
	C687.093445,514.626587 687.087097,495.296600 687.084106,475.966614
	C687.083862,474.203766 687.084045,472.440887 686.150940,470.401733
	C680.864441,478.156738 675.566467,485.903961 670.293945,493.668457
	C660.187622,508.551239 650.042969,523.408386 640.011597,538.341553
	C628.038757,556.164734 603.549438,555.270508 592.373047,536.823853
	C576.583618,510.763336 560.456848,484.907196 544.464111,458.970001
	C543.954041,458.142731 543.332397,457.384277 542.381042,456.063934
	C534.807861,477.486572 527.402405,498.406677 520.016479,519.333740
	C503.681915,565.615906 487.389465,611.913086 471.007782,658.178589
	C466.353790,671.322510 451.561005,681.026489 436.924561,680.825256
	C421.577911,680.614258 407.589294,670.730286 402.784180,656.717712
	C378.869598,586.978760 354.949097,517.241699 331.039093,447.501160
	C328.449402,439.947510 325.849579,432.396332 323.368500,424.806702
	C319.576874,413.208038 324.708893,401.735840 335.186157,398.173279
	C346.162903,394.440857 358.052948,400.424652 361.942505,411.976685
	C380.697845,467.679626 399.318970,523.427673 418.072571,579.131226
	C424.229279,597.418396 430.641357,615.619690 437.391846,635.179199
	C440.502960,626.562988 443.232971,619.195618 445.829254,611.781372
	C468.761566,546.293884 491.665710,480.796478 514.590210,415.306244
	C518.303040,404.699493 525.828979,398.326477 536.908386,397.190643
	C548.334045,396.019348 556.845032,401.537628 562.613953,411.137115
	C580.112610,440.254791 597.469971,469.457397 614.892029,498.621155
	C615.653076,499.895233 616.510193,501.111908 617.528809,502.670959
	C626.558838,488.939453 635.443359,475.479858 644.275391,461.985901
	C655.494080,444.845551 666.617859,427.642883 677.880432,410.531555
	C687.795166,395.468262 706.936768,392.147491 719.159241,403.972870
	C722.967468,407.657379 724.665527,413.522949 727.525146,419.135681
	C727.745361,424.198395 727.781555,428.515472 727.792664,432.832642
	C727.867676,461.886963 727.937378,490.941284 728.008789,519.995605
z"/>
  <path fill="#000029" opacity="1.000000" stroke="none"
        d="
M728.293213,642.683167
	C727.939270,614.932251 727.854919,586.874695 727.796021,558.817139
	C727.775146,548.854248 727.816101,538.891235 727.920898,528.468445
	C728.335449,529.244995 728.937744,530.480957 728.939514,531.717834
	C728.991150,567.794189 728.985596,603.870605 728.967041,639.947021
	C728.966614,640.756897 728.710083,641.566711 728.293213,642.683167
z"/>
  <path fill="#000029" opacity="1.000000" stroke="none"
        d="
M728.291321,519.690369
	C727.937378,490.941284 727.867676,461.886963 727.792664,432.832642
	C727.781555,428.515472 727.745361,424.198395 727.758667,419.409515
	C728.195007,420.304382 728.938293,421.670258 728.941101,423.037628
	C729.004944,454.342499 728.991211,485.647522 728.969055,516.952515
	C728.968445,517.763428 728.711304,518.574280 728.291321,519.690369
z"/>
</svg>